<?xml version="1.0" standalone="no"?>
<!DOCTYPE svg PUBLIC "-//W3C//DTD SVG 20010904//EN"
 "http://www.w3.org/TR/2001/REC-SVG-20010904/DTD/svg10.dtd">
<svg version="1.0" xmlns="http://www.w3.org/2000/svg"
 width="500.000000pt" height="500.000000pt" viewBox="0 0 500.000000 500.000000"
 preserveAspectRatio="xMidYMid meet">
<metadata>
Created by potrace 1.14, written by Peter Selinger 2001-2017
</metadata>
<g transform="translate(0.000000,500.000000) scale(0.100000,-0.100000)"
fill="#000000" stroke="none">
<path d="M1753 4690 c-113 -76 -147 -103 -238 -189 -86 -82 -210 -237 -236
-296 -5 -11 -13 -27 -18 -35 -97 -156 -131 -435 -75 -630 8 -30 16 -59 18 -65
18 -73 51 -151 122 -291 l61 -122 -31 10 c-61 18 -219 46 -316 56 -124 12
-391 5 -441 -12 -8 -3 -31 -8 -52 -11 -22 -3 -58 -10 -81 -16 -40 -10 -42 -12
-39 -46 7 -94 15 -136 40 -213 18 -57 83 -187 100 -202 7 -6 13 -17 13 -24 0
-8 4 -14 9 -14 4 0 20 -18 34 -39 31 -46 129 -147 212 -216 33 -27 65 -54 71
-60 6 -5 22 -17 34 -25 12 -8 28 -20 34 -25 12 -12 150 -103 181 -121 11 -6
62 -37 114 -68 51 -31 128 -75 170 -96 42 -22 101 -54 131 -71 30 -17 89 -49
130 -72 91 -49 175 -101 203 -127 11 -11 25 -20 30 -20 5 0 6 -8 2 -18 -4 -9
-8 -26 -11 -37 -2 -11 -8 -29 -13 -40 -13 -28 -41 -109 -41 -118 0 -4 -11 -28
-24 -55 -35 -67 -69 -145 -72 -160 -1 -8 -9 -21 -17 -30 -7 -10 -23 -35 -34
-57 -47 -91 -67 -125 -75 -125 -4 0 -8 -5 -8 -10 0 -12 -92 -134 -124 -165
-35 -33 -112 -128 -125 -153 -13 -24 -7 -42 13 -42 8 0 33 24 57 52 211 254
515 519 809 706 52 34 100 66 107 72 7 5 17 10 22 10 5 0 16 6 23 13 7 6 31
22 53 33 22 12 66 36 98 53 181 100 385 190 667 298 69 26 85 28 200 27 112
-1 199 -7 256 -18 10 -2 44 -7 74 -12 58 -8 68 -10 73 -14 1 -1 18 -3 37 -4
19 -1 58 -8 85 -14 49 -11 82 -17 160 -28 22 -3 46 -7 53 -10 67 -22 372 -25
447 -5 138 37 253 125 311 236 l29 55 -23 16 c-12 8 -35 27 -49 40 -14 13 -29
24 -33 24 -4 0 -23 13 -41 30 -19 16 -37 30 -40 30 -3 0 -17 9 -30 21 -35 30
-272 188 -354 236 -38 22 -86 50 -105 61 -102 61 -401 196 -425 192 -3 0 -18
6 -33 14 -29 14 -206 60 -282 72 -394 62 -854 -151 -1027 -476 -30 -56 -60
-130 -68 -169 -3 -11 -7 -30 -9 -41 -7 -29 -15 -40 -32 -40 -43 0 -184 -98
-184 -128 0 -6 -4 -12 -8 -12 -17 0 -129 -250 -146 -325 -9 -35 -29 -102 -34
-110 -4 -5 -7 -14 -7 -20 -2 -25 -26 -95 -35 -100 -6 -4 -8 -10 -5 -15 3 -4
-12 -46 -33 -92 -31 -66 -50 -92 -92 -128 -29 -25 -58 -49 -64 -55 -45 -41
-43 -28 13 83 33 67 67 139 75 159 38 102 45 120 57 148 7 17 13 35 13 40 1 6
12 42 25 80 12 39 24 77 26 85 6 30 46 145 56 164 6 10 12 27 14 39 3 11 10
27 18 36 7 9 18 28 25 43 6 16 16 28 22 28 6 0 9 4 6 8 -3 5 3 18 12 28 16 17
110 154 122 179 3 6 35 56 73 112 37 56 67 107 67 112 0 5 4 11 8 13 15 6 127
215 171 318 18 41 36 84 41 95 20 44 62 205 75 290 17 111 12 324 -9 420 -8
39 -17 82 -20 95 -15 79 -92 282 -147 393 -105 210 -268 420 -410 528 -17 13
-36 29 -42 34 -34 30 -203 125 -222 125 -2 0 -57 -36 -122 -80z"/>
</g>
</svg>
